<svg width="15" height="15" viewBox="0 0 15 15" fill="none" xmlns="http://www.w3.org/2000/svg">
<g clip-path="url(#clip0_166_20343)">
<path d="M7.5 0C3.36425 0 0 3.36425 0 7.5C0 11.6358 3.36425 15 7.5 15C11.6358 15 15 11.6352 15 7.5C15 3.36483 11.6358 0 7.5 0ZM7.5 13.8381C4.00562 13.8381 1.16188 10.995 1.16188 7.5C1.16188 4.00503 4.00562 1.16188 7.5 1.16188C10.995 1.16188 13.8381 4.00503 13.8381 7.5C13.8381 10.995 10.9944 13.8381 7.5 13.8381Z" fill="white"/>
<path d="M10.9406 4.89183C10.7041 4.67688 10.3364 4.69372 10.1203 4.93132L6.57653 8.83355L4.86447 7.09305C4.63847 6.86415 4.27133 6.86067 4.04301 7.08608C3.81412 7.3109 3.81063 7.67863 4.03604 7.90753L6.17914 10.0861C6.28895 10.1976 6.43766 10.2598 6.59334 10.2598C6.59683 10.2598 6.6009 10.2598 6.60439 10.2604C6.76473 10.2569 6.91578 10.1883 7.02325 10.0698L10.9801 5.71273C11.1956 5.47451 11.1782 5.10736 10.9406 4.89183Z" fill="white"/>
</g>
<defs>
<clipPath id="clip0_166_20343">
<rect width="15" height="15" fill="white"/>
</clipPath>
</defs>
</svg>
