<svg width="15" height="15" viewBox="0 0 15 15" fill="none" xmlns="http://www.w3.org/2000/svg">
<g clip-path="url(#clip0_166_20362)">
<path d="M8.21694 14.958C11.2259 14.6209 13.6374 12.2156 13.9806 9.20656C14.431 5.27219 11.373 1.92308 7.53977 1.88018V0.115228C7.53977 0.0171751 7.4172 -0.0349154 7.33447 0.0263676L3.7004 2.69524C3.63912 2.7412 3.63912 2.83006 3.7004 2.87603L7.33447 5.5449C7.4172 5.60618 7.53977 5.55103 7.53977 5.45604V3.69415C10.2331 3.73705 12.3903 6.02904 12.2065 8.76839C12.0502 11.1247 10.129 13.0367 7.77264 13.1869C5.27537 13.3462 3.15192 11.5629 2.77197 9.2035C2.70149 8.76532 2.31848 8.44665 1.87724 8.44665C1.32876 8.44665 0.899778 8.93385 0.985574 9.4762C1.51873 12.8376 4.62271 15.3594 8.21694 14.958Z" fill="white"/>
</g>
<defs>
<clipPath id="clip0_166_20362">
<rect width="15" height="15" fill="white"/>
</clipPath>
</defs>
</svg>
