<svg width="40" height="40" viewBox="0 0 40 40" fill="none" xmlns="http://www.w3.org/2000/svg">
<mask id="mask0_2018_15297" style="mask-type:alpha" maskUnits="userSpaceOnUse" x="0" y="0" width="40" height="40">
<rect x="40" width="40" height="40" transform="rotate(90 40 0)" fill="#D9D9D9"/>
</mask>
<g mask="url(#mask0_2018_15297)">
<path d="M38.334 19.3724C38.334 21.9002 37.4523 24.0596 35.689 25.8507C33.9245 27.643 31.7784 28.5391 29.2507 28.5391C27.9173 28.5391 26.6051 28.2402 25.314 27.6424C24.0218 27.0457 22.9034 26.1502 21.959 24.9557L21.959 23.5391L25.1673 23.5391C25.7229 24.0391 26.3412 24.4418 27.0223 24.7474C27.7023 25.053 28.4451 25.2057 29.2507 25.2057C30.834 25.2057 32.1884 24.6296 33.314 23.4774C34.4384 22.3241 35.0007 20.9557 35.0007 19.3724C35.0007 17.7335 34.4384 16.3513 33.314 15.2257C32.1884 14.1013 30.834 13.5391 29.2507 13.5391C28.4451 13.5391 27.6812 13.6846 26.959 13.9757C26.2368 14.268 25.6118 14.678 25.084 15.2057L21.0007 15.2057C21.7784 13.7057 22.8895 12.4974 24.334 11.5807C25.7784 10.6641 27.4173 10.2057 29.2507 10.2057C31.7784 10.2057 33.9245 11.0946 35.689 12.8724C37.4523 14.6502 38.334 16.8168 38.334 19.3724ZM3.33398 17.7891C3.33398 17.3168 3.42454 16.8724 3.60565 16.4557C3.78565 16.0391 4.02843 15.678 4.33398 15.3724L12.9173 6.78906L15.334 9.12239C15.7229 9.51128 16.0218 9.94906 16.2307 10.4357C16.4384 10.9213 16.4729 11.428 16.334 11.9557L15.584 15.2057L29.1673 15.2057C30.334 15.2057 31.3201 15.6085 32.1257 16.4141C32.9312 17.2196 33.334 18.2057 33.334 19.3724C33.334 20.5391 32.9312 21.5252 32.1257 22.3307C31.3201 23.1363 30.334 23.5391 29.1673 23.5391L22.0006 23.5391L22.0006 24.6224C22.0006 24.7613 21.9801 24.893 21.939 25.0174C21.8968 25.143 21.834 25.2613 21.7507 25.3724L18.7507 31.5391C18.4451 32.2057 17.9523 32.6985 17.2723 33.0174C16.5912 33.3374 15.8895 33.428 15.1673 33.2891L6.08398 31.7891C5.27843 31.6502 4.61843 31.2613 4.10398 30.6224C3.59065 29.9835 3.33398 29.2613 3.33398 28.4557L3.33398 17.7891ZM6.66732 17.7891L6.66732 28.4557L15.7506 30.0391L19.1673 23.1224L19.1673 20.2057L29.1673 20.2057C29.4173 20.2057 29.619 20.1296 29.7723 19.9774C29.9245 19.8241 30.0007 19.6224 30.0007 19.3724C30.0007 19.1224 29.9245 18.9207 29.7723 18.7674C29.619 18.6152 29.4173 18.5391 29.1673 18.5391L11.5006 18.5391L13.0007 11.4557L6.66732 17.7891Z" fill="#3D3D3D"/>
</g>
</svg>
